<svg xmlns="http://www.w3.org/2000/svg" width="106" height="81" fill="none" viewBox="0 0 106 81">
    <path fill="url(#paint0_linear)" fill-rule="evenodd" d="M30.184 54.707c.538.003 1.06.064 1.555.182 2.426.583 3.986 2.49 3.977 4.86-.002.849-.257 1.668-.753 2.437l-.038.084-.009.009c-.034.044-.075.098-.134.171-.259.356-.578.708-.953 1.053-.282.278-1.05.89-1.217 1.013l-5.323 3.805c-1.002.835-1.644 2.08-1.644 3.477 0 2.51 2.058 4.55 4.586 4.55 2.53 0 4.586-2.04 4.586-4.55 0-.653-.142-1.273-.393-1.836l-2.486 1.958-1.153-1.447c-.626-.794-.487-1.942.313-2.563l7.86-6.029 1.12 1.425c.627.794.487 1.942-.312 2.564l-2.393 1.8c.713 1.213 1.125 2.622 1.125 4.128 0 4.53-3.701 8.202-8.267 8.202-4.565 0-8.266-3.672-8.266-8.202 0-3.293 1.957-6.132 4.78-7.436.006-.005.013-.01.021-.014l.126-.091s-.566-.599-.574-.624c-.825-.964-1.685-2.27-1.68-3.764.009-1.97.969-3.179 1.772-3.845 1.014-.842 2.39-1.322 3.774-1.317zm42.582 3.204c3.983 0 6.874 2.9 6.874 6.9 0 3.93-2.954 6.896-6.874 6.896-3.918 0-6.873-2.965-6.873-6.897 0-3.998 2.89-6.899 6.873-6.899zm25.744.073c3.951 0 6.406 2.555 6.406 6.67 0 .369-.054 1.09-.054 1.09h-9.25l.016.16c.169 1.574 1.524 2.716 3.223 2.716 1.318 0 2.248-.53 2.766-1.578l.007-.012h3.221l-.004.024c-.016.102-.039.231-.067.345l-.043.156c-.585 1.971-2.444 4.08-5.906 4.08-1.8 0-3.463-.643-4.682-1.811-1.317-1.262-2.014-3.014-2.014-5.066 0-1.923.692-3.672 1.945-4.926 1.19-1.192 2.765-1.848 4.436-1.848zm-52.323-.16c.51 0 .926.413.926.92v.683l.246-.235c.972-.926 2.39-1.254 3.307-1.254 1.614 0 2.963.645 3.702 1.77l.112.17.126-.16c.95-1.215 2.189-1.78 3.902-1.78 1.299 0 2.477.419 3.315 1.178.97.88 1.482 2.197 1.482 3.813v7.474c0 .506-.415.919-.926.919h-2.773v-7.697c0-1.434-.74-2.222-2.085-2.222-1.288 0-2.187.956-2.187 2.324l.004 6.676c0 .506-.416.919-.927.919h-2.855v-7.697c0-1.413-.76-2.222-2.084-2.222s-2.213.933-2.213 2.324l.003 6.676c0 .506-.416.919-.927.919h-2.88V58.744c0-.507.415-.92.926-.92h1.806zm38.82.002c.511 0 .927.411.927.918v.92l.253-.271c.973-1.041 2.422-1.197 3.2-1.197.172 0 .654.038.654.038.343.044.6.337.6.679v2.323c0 .365-.29.628-.69.628l-.798.001c-2.042 0-3.123 1.205-3.123 3.485v5.972h-3.803V58.744c0-.507.416-.918.926-.918h1.854zm-12.24 3.55c-1.529 0-3.072 1.061-3.072 3.434 0 1.653.961 3.433 3.071 3.433 1.53 0 3.071-1.062 3.071-3.433 0-2.373-1.541-3.434-3.07-3.434zm25.795-.534c-1.647 0-2.68 1.168-2.849 2.322l-.023.164h5.745l-.018-.16c-.115-1.123-.925-2.326-2.855-2.326zm-68.418-2.826c-.858-.002-1.727.6-1.732 1.759-.002.586.366 1.252 1.094 1.98l.304.336.066.066.055-.04c.43-.314.765-.562.937-.69.303-.23.624-.565.839-.805l.007-.007.005-.01c.15-.278.224-.573.225-.897.003-.787-.53-1.444-1.325-1.636-.153-.036-.313-.055-.475-.056zm-1.658-41.348c1.07 0 1.945.87 1.945 1.93v17.716c0 4.387 2.5 7.11 6.537 7.11 4.102 0 6.753-2.736 6.753-6.972l.003-17.853c0-1.061.876-1.931 1.945-1.931h4.596c1.07 0 1.947.87 1.947 1.93L52.2 44.453c0 2.286.162 4.922.277 6.063l.026.25-5.137.003c-1.787 0-3.25-1.451-3.25-3.224v-1.739l-.551.935c-1.896 3.205-6.275 4.346-9.421 4.346-6.244 0-12.2-3.997-12.2-12.925V18.598c0-1.061.876-1.931 1.945-1.931h4.597zM88.624.805c1.07 0 1.945.868 1.945 1.93v42.07c.003.477.01.979.02 1.483l.019.754c.037 1.377.099 2.687.163 3.477l.02.246-5.238.003c-1.787 0-3.25-1.451-3.25-3.226l.001-1.984.001-.021-.53.935c-1.596 2.804-5.124 4.546-9.212 4.546-9.385 0-16.196-7.306-16.196-17.37 0-9.985 6.695-17.232 15.92-17.232 2.29 0 4.046.369 5.385.889 1.624.554 3.147 1.362 4.538 2.378l-.008-16.949c0-1.06.875-1.93 1.945-1.93h4.477zM12.673 0c1.627 0 3.203.243 4.11.525.117.03.23.068.337.117.032.015.067.028.098.042l.003.008c.683.3 1.165.98 1.165 1.766v4.1c0 .776-.468 1.446-1.137 1.752l-.03.02c-.483-.13-1.379-.334-2.894-.334-2.066 0-5.096 1.229-5.096 4.988v3.69l6.397.036c1.07 0 1.945.87 1.945 1.931l-.01 5.823H9.23v26.514H0V12.846C0 5.261 5.165 0 12.673 0zm89.89 17.237c1.07 0 1.945.869 1.945 1.93v31.6h-8.482l-.004-31.6c0-1.062.875-1.93 1.945-1.93h4.596zM73.281 24.55c-4.874 0-8.147 3.657-8.147 9.102 0 5.521 3.273 9.229 8.147 9.229 4.835 0 8.083-3.734 8.083-9.293 0-5.406-3.248-9.038-8.083-9.038zm26.985-22.065c2.654 0 4.734 2.093 4.734 4.765 0 2.554-2.124 4.63-4.734 4.63-2.567 0-4.736-2.12-4.736-4.63 0-2.627 2.124-4.765 4.736-4.765z" clip-rule="evenodd"/>
    <defs>
        <linearGradient id="paint0_linear" x1="0" x2="88.51" y1="16.425" y2="84.892" gradientUnits="userSpaceOnUse">
            <stop stop-color="#FF8B58"/>
            <stop offset="1" stop-color="#FF7C71"/>
        </linearGradient>
    </defs>
</svg>
