<svg xmlns="http://www.w3.org/2000/svg" width="133" height="133" fill="none" viewBox="0 0 133 133">
    <g filter="url(#filter0_d)">
        <circle cx="66.5" cy="60.5" r="36.5" fill="#FF8367"/>
    </g>
    <path fill="#fff" fill-rule="evenodd" d="M53.07 49.997l3.855.213c.312 0 .52.213.73.426.166.17.2.41.206.661l.001.191-1.674 9.438v4.685H69.21v-5.42c0-.32.105-.532.313-.745.167-.17.333-.273.553-.307l.176-.013h12.399c.26 0 .52.074.72.284l.113.142 4.793 5.74c0 .106.104.106.104.213.625 1.384.521 3.088-.312 4.366-.453.752-1.06 1.316-1.77 1.674l-.002.03c0 4.153-3.23 7.561-7.293 7.561-4.063 0-7.293-3.408-7.397-7.348l.01.212-14.094.001c-.253 3.784-3.192 6.83-6.908 7.02l-.367.008c-4.063 0-7.293-3.3-7.397-7.56 0-4.154 3.23-7.562 7.293-7.562v-3.194l1.883-9.864c.104-.532.52-.852 1.042-.852zm29.373 1.238c.365.559.65 1.2.716 1.993l.014.35v2.236c0 .32-.105.532-.313.745-.167.17-.333.273-.553.307l-.176.013-11.878.106-.18-.015c-.465-.08-.776-.46-.773-.813l.016-.13v-2.343c0-1.715 1.215-3.143 2.85-3.289l.275-.012 7.502-.107c1.354-.106 2.084.533 2.5.959zm-19.379-9.372c.625 0 1.042.426 1.042 1.065 0 .575-.422.978-.886 1.053l-.156.012-3.797-.001-.579 3.302c-.092.474-.432.779-.872.84l-.17.012-4.063-.213c-.313 0-.52-.213-.73-.426-.208-.212-.312-.532-.208-.851.521-2.77 3.022-4.793 5.73-4.793h4.69z" clip-rule="evenodd"/>
    <defs>
        <filter id="filter0_d" width="133" height="133" x="0" y="0" color-interpolation-filters="sRGB" filterUnits="userSpaceOnUse">
            <feFlood flood-opacity="0" result="BackgroundImageFix"/>
            <feColorMatrix in="SourceAlpha" values="0 0 0 0 0 0 0 0 0 0 0 0 0 0 0 0 0 0 127 0"/>
            <feOffset dy="6"/>
            <feGaussianBlur stdDeviation="15"/>
            <feColorMatrix values="0 0 0 0 0.375833 0 0 0 0 0.4305 0 0 0 0 0.5125 0 0 0 0.15 0"/>
            <feBlend in2="BackgroundImageFix" result="effect1_dropShadow"/>
            <feBlend in="SourceGraphic" in2="effect1_dropShadow" result="shape"/>
        </filter>
    </defs>
</svg>
