<?xml version="1.0" standalone="no"?><!DOCTYPE svg PUBLIC "-//W3C//DTD SVG 1.1//EN" "http://www.w3.org/Graphics/SVG/1.1/DTD/svg11.dtd"><svg t="1616462970359" class="icon" viewBox="0 0 1024 1024" version="1.1" xmlns="http://www.w3.org/2000/svg" p-id="2316" xmlns:xlink="http://www.w3.org/1999/xlink" width="200" height="200"><defs><style type="text/css"></style></defs><path d="M23.272727 141.963636h977.454546v651.636364H23.272727z" fill="#083F80" p-id="2317"></path><path d="M23.272727 370.036364h977.454546v193.163636H23.272727z" fill="#FFFFFF" p-id="2318"></path><path d="M605.346909 140.427636v651.636364h-193.163636v-651.636364z" fill="#FFFFFF" p-id="2319"></path><path d="M1000.727273 721.454545v72.145455h-116.363637L23.272727 221.090909V141.963636h114.036364z" fill="#FFFFFF" p-id="2320"></path><path d="M1000.727273 214.109091V141.963636h-116.363637L23.272727 712.145455v81.454545h114.036364z" fill="#FFFFFF" p-id="2321"></path><path d="M23.272727 193.163636l262.981818 176.872728h79.127273L23.272727 141.963636zM1000.727273 740.072727l-262.981818-176.872727h-79.127273L1000.727273 793.6zM605.090909 351.418182v18.618182h51.2L1000.727273 141.963636h-86.109091zM418.909091 584.145455v-20.945455h-51.2L23.272727 793.6h86.109091z" fill="#B7333C" p-id="2322"></path><path d="M453.818182 141.963636h114.036363v651.636364h-114.036363z" fill="#B7333C" p-id="2323"></path><path d="M20.852364 524.590545v-114.036363h979.781818v114.036363z" fill="#B7333C" p-id="2324"></path></svg>