<svg xmlns="http://www.w3.org/2000/svg" width="56" height="56"  viewBox="0 0 56 56">
    <path d="M3.5 49c0 1.936 1.564 3.5 3.5 3.5h17.5V35h-21v14zm28 3.5H49c1.936 0 3.5-1.564 3.5-3.5V35h-21v17.5zm21-35h-4.605C48.573 16.177 49 14.71 49 13.125 49 7.82 44.68 3.5 39.375 3.5c-4.55 0-7.492 2.33-11.266 7.47-3.773-5.14-6.715-7.47-11.265-7.47-5.305 0-9.625 4.32-9.625 9.625 0 1.586.415 3.052 1.104 4.375H3.5C1.564 17.5 0 19.064 0 21v8.75c0 .962.787 1.75 1.75 1.75h52.5c.962 0 1.75-.788 1.75-1.75V21c0-1.936-1.564-3.5-3.5-3.5zm-35.667 0c-2.417 0-4.375-1.958-4.375-4.375s1.958-4.375 4.375-4.375c2.176 0 3.784.36 9.417 8.75h-9.417zm22.542 0h-9.417c5.622-8.367 7.186-8.75 9.417-8.75 2.417 0 4.375 1.958 4.375 4.375S41.792 17.5 39.375 17.5z"/>
</svg>
