<svg xmlns="http://www.w3.org/2000/svg" width="27" height="32" fill="none" viewBox="0 0 35 40">
    <path fill-rule="evenodd" stroke="#32CA88" stroke-linejoin="round" stroke-width="3" d="M7.753 30.02c-1.632 0-3.105-.913-3.745-2.32-.639-1.405-.315-3.033.822-4.128l.241-.232c1.133-1.092 1.766-2.554 1.766-4.077v-3.176c0-5.217 4.512-9.447 10.077-9.447h1.173c5.415 0 9.832 4.004 10.067 9.026l.01 3.597c0 1.384.523 2.719 1.47 3.77l.296.307.241.232c1.136 1.095 1.46 2.723.822 4.128-.597 1.313-1.92 2.196-3.421 2.308l-.324.012H7.753z" clip-rule="evenodd"/>
    <path fill="#FAFAFA" stroke="#32CA88" stroke-linejoin="round" stroke-width="3" d="M17.5 8.31c1.908 0 3.455-1.496 3.455-3.34 0-1.845-1.547-3.34-3.454-3.34-1.908 0-3.454 1.495-3.454 3.34 0 1.844 1.546 3.34 3.454 3.34z"/>
    <path fill="#32CA88" fill-rule="evenodd" stroke="#32CA88" stroke-linejoin="round" stroke-width="3" d="M14.047 35.043c0 1.838 1.546 3.327 3.454 3.327 1.907 0 3.454-1.49 3.454-3.327-3.898-.023-3.898-.01-6.908 0z" clip-rule="evenodd"/>
</svg>
