<svg xmlns="http://www.w3.org/2000/svg" width="22" height="25" fill="none" viewBox="0 0 22 25">
    <path fill-rule="evenodd" stroke="#2A2A2A" stroke-linejoin="round" stroke-width="2" d="M11 2.5c3.866 0 7 3.171 7 7.083 0 1.257-.618 3.054-1.853 5.392-.62 1.176-.945 2.484-.946 3.813v1.295c0 1.887-1.53 3.417-3.418 3.417h-1.566C8.33 23.5 6.8 21.97 6.8 20.084V18.79c0-1.33-.325-2.64-.947-3.816C4.618 12.638 4 10.84 4 9.583 4 5.671 7.134 2.5 11 2.5z" clip-rule="evenodd"/>
    <path stroke="#2A2A2A" stroke-linejoin="round" stroke-width="2" d="M5.75 17.083h9.333"/>
    <path stroke="#2A2A2A" stroke-linecap="round" stroke-linejoin="round" stroke-width="2" d="M9.833 7.167c-.645 0-1.167.522-1.167 1.166"/>
</svg>
