<svg xmlns="http://www.w3.org/2000/svg" width="22" height="22" fill="none" viewBox="0 0 22 22">
    <path fill-rule="evenodd" stroke="#32CA88" stroke-linejoin="round" stroke-width="2.5" d="M18 1.75c.621 0 1.184.252 1.591.659.407.407.659.97.659 1.591v8c0 .621-.252 1.184-.659 1.591-.407.407-.97.659-1.591.659h-5.36c-.428 0-.842.157-1.162.442L5.75 19.784V14.25H4c-.621 0-1.184-.252-1.591-.659-.407-.407-.659-.97-.659-1.591V4c0-.621.252-1.184.659-1.591.407-.407.97-.659 1.591-.659h14z" clip-rule="evenodd"/>
</svg>
