<svg xmlns="http://www.w3.org/2000/svg" width="32" height="32"  viewBox="0 0 40 40">
    <path fill-rule="evenodd" stroke-width="3" d="M31.078 15.22c.874 0 1.683.323 2.306.866.624.543 1.062 1.305 1.195 2.182l2.18 14.385c.148.982-.11 1.931-.645 2.673-.506.7-1.26 1.216-2.155 1.399l-27.024.07c-.978 0-1.863-.402-2.504-1.052-.605-.615-.992-1.45-1.034-2.378l2.217-15.097c.133-.877.571-1.64 1.195-2.182.623-.543 1.432-.867 2.306-.867h21.963z" clip-rule="evenodd"/>
    <path stroke-linejoin="round" stroke-width="4" d="M30.216 14.706c0-5.675-4.53-10.275-10.12-10.275-5.588 0-10.118 4.6-10.118 10.274"/>
</svg>
