<svg xmlns="http://www.w3.org/2000/svg" width="22" height="25" fill="none" viewBox="0 0 22 25">
    <path stroke="#2A2A2A" stroke-linecap="round" stroke-linejoin="round" stroke-width="2" d="M7.219 8.868c2.054 0 3.718-1.675 3.718-3.74 0-2.065-1.664-3.74-3.718-3.74-2.054 0-3.719 1.675-3.719 3.74 0 2.065 1.665 3.74 3.719 3.74zM14.656 16.346c2.054 0 3.719-1.674 3.719-3.74 0-2.064-1.665-3.738-3.719-3.738s-3.719 1.674-3.719 3.739 1.665 3.74 3.72 3.74zM7.219 8.868c-3.228 0-5.844 2.87-5.844 6.41h5.92"/>
    <path fill-rule="evenodd" stroke="#2A2A2A" stroke-linecap="round" stroke-linejoin="round" stroke-width="2" d="M20.5 22.756c0-3.54-2.616-6.41-5.844-6.41-3.227 0-5.844 2.87-5.844 6.41H20.5z" clip-rule="evenodd"/>
</svg>
