<svg xmlns="http://www.w3.org/2000/svg" width="21" height="25" fill="none" viewBox="0 0 21 25">
    <path fill-rule="evenodd" stroke="#2A2A2A" stroke-width="2" d="M13.677 3.125h2.277c.265 0 .5.122.672.307.2.216.317.515.317.842v16.453c0 .326-.118.625-.317.84-.172.186-.407.308-.672.308h-2.277c-.166-.486-.43-.922-.763-1.281-.618-.666-1.473-1.07-2.414-1.07-.94 0-1.797.404-2.414 1.07-.334.359-.597.795-.763 1.281H5.045c-.264 0-.5-.122-.671-.307-.2-.216-.317-.515-.317-.841V4.273c0-.326.117-.625.317-.84.172-.186.407-.308.671-.308h2.278c.166.486.43.922.763 1.281.617.666 1.473 1.07 2.414 1.07.94 0 1.796-.404 2.414-1.07.333-.359.597-.795.763-1.281z" clip-rule="evenodd"/>
    <path stroke="#2A2A2A" stroke-linecap="square" stroke-width="2" d="M5.25 12.98h11.454"/>
</svg>
