<svg xmlns="http://www.w3.org/2000/svg" width="20" height="20" fill="none" viewBox="0 0 20 20">
    <path fill-rule="evenodd" stroke="#7C7C7D" stroke-linejoin="round" stroke-width="2" d="M18.331 14.047l-3.68-1.898c-.517-.268-1.158-.123-1.51.33l-1.344 1.733c-1.323-.701-2.316-1.382-3.473-2.537C7.083 10.438 6.42 9.427 5.76 8.15l1.716-1.34c.455-.351.6-.99.33-1.506l-1.902-3.65c-.33-.64-1.158-.846-1.757-.454L1.81 2.766c-.538.371-.848.99-.806 1.63.041.66.124 1.505.29 2.082.682 2.62 2.315 5.32 4.63 7.61 2.296 2.29 5.005 3.918 7.63 4.62.58.144 1.428.227 2.11.288.662.042 1.303-.268 1.654-.825l1.53-2.371c.331-.619.104-1.423-.517-1.753z" clip-rule="evenodd"/>
</svg>
