<svg xmlns="http://www.w3.org/2000/svg" width="289" height="289" fill="none" viewBox="0 0 289 289">
    <circle cx="144.5" cy="144.5" r="144.5" fill="#FBE2DD"/>
    <path fill="#FF8367" fill-rule="evenodd" d="M128.881 129.819c5.228.177 10.428.265 15.618.265 5.19 0 10.391-.088 15.618-.265 1.879-.063 3.239.954 3.034 2.272l-.021.114-4.02 18.04c-.235 1.055-1.166 1.985-2.283 2.289-2.511.698-4.975 1.188-7.414 1.469v34.725c11.483.855 19.805 4.665 19.636 9.294h.019l-.65 4.736h-.019c-.006.131-.017.263-.035.395-.749 5.449-11.433 9.867-23.865 9.867-12.431 0-23.115-4.418-23.864-9.867-.018-.132-.03-.264-.035-.395h-.019l-.651-4.736h.02c-.169-4.629 8.153-8.439 19.636-9.294v-34.725c-2.439-.281-4.903-.771-7.415-1.469-1.116-.304-2.047-1.234-2.282-2.289l-4.02-18.04c-.294-1.319.982-2.389 2.849-2.389.055 0 .109.001.163.003zM144.5 76.957c47.026 0 84.418 9.587 83.518 21.413l-.465 6.118c-.9 11.826-38.084 21.413-83.053 21.413-44.968 0-82.152-9.587-83.052-21.413l-.466-6.118-.017-.354c-.14-11.663 36.98-21.059 83.535-21.059z" clip-rule="evenodd"/>
</svg>
