<svg xmlns="http://www.w3.org/2000/svg" width="24" height="20" fill="none" viewBox="0 0 24 20">
    <path fill="#2A2A2A" fill-rule="evenodd" d="M22.136 7.075l-.256-.097-3.4 4.25c-.057.078-.144.118-.234.118-.06 0-.121-.019-.173-.058-.13-.096-.157-.278-.06-.407l3.575-4.484.024-.563c.061-1.397-.984-2.6-2.381-2.739l-.852-.085-2.36 6.21c-.043.121-.155.196-.274.196-.034 0-.067-.006-.1-.018-.151-.057-.229-.227-.174-.381l2.395-6.305.115-.27C17.485 1.242 16.15.548 14.838.905l-.251.068-1.023 7.4c-.02.148-.145.257-.29.257-.012 0-.024 0-.037-.002-.16-.02-.273-.169-.253-.33L14.007.9l-.014-.078-.427-.312c-.932-.681-2.2-.681-3.132 0l-.427.312-.014.08.974 7.204c.02.162-.092.31-.252.33-.012.002-.025.003-.037.003-.146 0-.27-.109-.29-.258L9.413.972l-.25-.068c-1.358-.369-2.738.385-3.19 1.661l.155.305 2.518 6.503c.056.151-.023.318-.174.373-.032.012-.066.018-.1.018-.119 0-.23-.073-.274-.19L5.587 3.085l-.043-.068-.775.077c-1.397.14-2.442 1.342-2.381 2.74l.022.496 3.74 4.738c.096.13.07.311-.06.407-.052.04-.114.058-.174.058-.089 0-.177-.04-.234-.117L2.156 6.965l-.292.11C.61 7.546-.152 8.818.026 10.143c.1.74.485 1.411 1.073 1.873l6.297 4.94-.203.605c-.154.46-.153.97.06 1.407.35.715 1.083 1.095 1.818 1.023L12 20l2.929-.009c.735.072 1.468-.308 1.818-1.023.213-.436.214-.947.06-1.407l-.202-.606 6.296-4.939c.588-.462.973-1.133 1.073-1.873.178-1.325-.584-2.597-1.838-3.068z" clip-rule="evenodd"/>
</svg>
