<svg xmlns="http://www.w3.org/2000/svg" width="19" height="20" fill="none" viewBox="0 0 19 20">
    <path fill="#2A2A2A" fill-rule="evenodd" d="M.29.297c.706-.692 2.787-.013 4.014.41 2.138.74 2.891 1.718 3.109 3.484.163 1.334 1.783 1.58 2.467 1.796 1.532.483 2.334 1.085 3.13 2.17 1.482 2.022.703 3 1.644 3.979.943.978 2.5.732 3.623 2.4 2.406 3.572-1.72 7.15-4.692 4.604-1.524-1.304-1.333-2.744-2.275-3.722-.941-.978-2.704-.76-4.047-1.72-1.585-1.132-1.7-2.145-1.907-3.271-.13-.712-.397-2.314-1.709-2.54C1.993 7.6.654 6.642.287 4.65.04 3.324-.214.791.29.297zM13.59 14.454c-.808.792-.655 2.273.34 3.306.996 1.035 2.457 1.23 3.265.438.807-.792.655-2.273-.341-3.307-.996-1.034-2.457-1.229-3.264-.437zM7.42 8.077c-1.052 1.033-.988 2.75.31 4.097 1.297 1.348 3.202 1.602 4.254.57 1.052-1.033.853-2.962-.445-4.31-1.297-1.347-3.067-1.39-4.119-.357zM1.864 2.094c-.879.862-.713 2.473.37 3.597 1.083 1.125 2.673 1.337 3.551.476.879-.862.713-2.473-.37-3.597-1.083-1.125-2.673-1.337-3.551-.476z" clip-rule="evenodd"/>
</svg>
