<svg xmlns="http://www.w3.org/2000/svg" width="20" height="20" fill="none" viewBox="0 0 20 20">
    <path fill="#2A2A2A" fill-rule="evenodd" d="M17.91.002c.024-.009.058.013.088.02-.016.024-.028.056-.05.07-.3.187-.595.379-.9.555-.32.185-.655.347-.975.534-.755.44-1.552.79-2.347 1.14-.637.28-1.3.496-1.954.74l-2.226.828-.127.05c.027.01.964-.212 1.4-.354.19-.061.857-.322 1.645-.635l.539-.214c1.19-.476 2.467-.995 2.758-1.118.103-.043.207-.081.312-.116.04-.014.084-.01.127-.015l.007.026c-.018.018-.034.04-.054.053-.227.136-.451.28-.684.404-.352.189-.708.37-1.068.544-.271.13-.552.24-.825.366-.571.264-1.136.543-1.731.745-.708.24-2.134.837-2.156.849l.008.024.964-.178.01.033c-.025.02-.048.045-.077.06-.168.093-.342.177-.507.277-.139.085-.495.406-.541.468l.02.02c.032-.006.066-.01.096-.022l.357-.15c.028-.01.062-.004.093-.005-.017.03-.026.067-.05.087-.057.046-.126.079-.181.128-.092.082-.176.171-.278.273l.079-.001.029-.004c.164-.036.332-.062.49-.115.385-.127.765-.27 1.148-.404.107-.037 1.87-.802 2.614-1.213.148-.081.304-.147.46-.213.01-.004.02-.004.032-.001l.074.022c-.017.033-.547.417-.779.568-.624.406-2.858 1.346-3.29 1.538-.617.275-1.138.68-1.526 1.259-.417.625-.937 1.151-1.517 1.61-.44.349-.7.812-.86 1.343-.147.493-.332.964-.683 1.343-.115.124-.177.255-.175.424l.001.168v.36c.049-.035.071-.047.09-.065.165-.166 1.107-1.188 1.426-1.52.335-.348.75-.428 1.195-.3.298.085.585.211.875.322.026.01.046.038.068.058-.03.007-.063.028-.089.021-.227-.059-.456-.112-.677-.187-.48-.164-.891-.071-1.228.326-.279.329-1.244 1.403-1.46 1.598-.125.112-.136.1-.087.268l.004.015c.038.127.063.137.156.05.24-.228 1.295-1.306 1.64-1.55.204-.144.421-.263.682-.224.352.053.684.17 1 .335.026.013.044.04.066.062l-.018.029c-.084-.027-.167-.056-.252-.078-.223-.061-.446-.12-.67-.178-.225-.057-.43.009-.597.156-.197.175-.381.366-.56.56-.37.404-.694.854-1.12 1.201-.017.014-.036.05-.03.067.034.1.076.199.119.308.043-.044.086-.08.12-.122l.397-.475.268-.319c.176-.21.338-.4.418-.49.108-.12.25-.192.41-.205.11-.01.23-.014.335.015.345.095.686.206 1.027.313.048.016.112.027.098.122-.078-.015-.152-.027-.224-.045-.307-.075-.612-.16-.92-.227-.246-.053-.454.026-.603.24-.086.124-.164.253-.25.378-.274.403-.516.832-.88 1.164-.037.035-.032.064 0 .095.067.066.135.13.199.2.057.063.094.048.14-.017.209-.296.43-.584.63-.886.21-.32.494-.487.862-.507.129-.007.258-.014.386-.003.419.037.837.083 1.256.124.165.016.33.027.495.044.03.003.057.018.086.028l-.007.026c-.022.006-.045.015-.068.015-.204.008-1.184-.04-1.47-.056-.27-.014-.541-.028-.808.044-.16.043-.293.117-.388.269-.241.384-.493.763-.741 1.142-.03.045-.014.067.021.093.096.07.191.142.287.215.089.067.089.068.142-.031.139-.26.272-.521.416-.777.145-.258.346-.447.648-.478.414-.043.81.059 1.203.175.021.006.036.037.054.056-.023.013-.047.037-.07.035-.089-.005-.178-.015-.266-.03-.262-.042-.525-.077-.793-.054-.158.015-.302.065-.4.197-.073.098-.133.207-.188.317-.137.274-.249.563-.453.798-.011.013 0 .065.017.085.11.13.19.273.212.447.001.015.009.03.019.062l.062-.074c.172-.207.287-.442.371-.702.128-.392.305-.518.703-.527.408-.009.813.046 1.215.117.06.01.156.005.15.096-.01.099-.106.073-.168.07-.234-.015-.466-.043-.7-.052-.217-.008-.435-.002-.653.007-.104.004-.173.072-.205.176-.024.081-.236.777-.406 1.004-.141.188-.137.19.04.346.053.046.085.044.139-.004.217-.191.337-.448.458-.705.079-.167.203-.266.38-.295.254-.044.503-.02.745.072.039.015.106.014.09.084-.003.012-.077.016-.114.007-.233-.056-.466-.089-.703-.028-.11.029-.194.082-.227.208-.081.314-.182.62-.408.861-.038.041-.035.075.013.104.098.058.212.094.295.171 1.114 1.034 2.3.757 2.875.508.855-.37 1.506-.969 1.87-1.86.201-.49.373-.993.545-1.494.16-.466.292-.942.512-1.384.1-.202.186-.42.392-.538.14-.08.28-.163.43-.217.384-.14.783-.208 1.189-.242 1.026-.084 2.042-.026 3.045.23.058.016.118.041.168.077.071.054.06.095-.02.133-.24.117-.485.224-.716.358-.549.316-1.008.756-1.457 1.202-.396.392-1.979 2.302-2.39 2.845-.339.449-.646.925-.989 1.37-.65.845-1.456 1.487-2.412 1.922-.928.42-1.907.618-2.913.702-.982.08-1.943-.005-2.882-.325-.488-.165-2.067-.795-3.2-1.81-.338-.305-.658-.625-.95-.975-.307-.37-1.516-2.448-1.726-3.147-.074-.247-.164-.49-.217-.741-.172-.823-.043-1.625.126-2.44.533-2.576 2.98-4.385 3.473-4.75.016-.01 1.635-1.066 2.5-1.45 1.051-.465 2.14-.822 3.235-1.15.916-.275 1.841-.519 2.743-.846.766-.278 1.544-.52 2.311-.795.497-.178.992-.361 1.464-.604C16.463.667 17 .41 17.535.152c.121-.058.249-.104.375-.15zM6.233 5.608c-.414.41-.261 1.011.24 1.183.268.092.52.08.73-.141.225-.239.333-.523.247-.854-.064-.253-.242-.39-.491-.417-.298-.033-.555.071-.726.23z" clip-rule="evenodd"/>
</svg>
