<svg xmlns="http://www.w3.org/2000/svg" width="22" height="20" fill="none" viewBox="0 0 22 20">
    <path fill="#2A2A2A" fill-rule="evenodd" d="M14.087 13.132c2.083-2.023 6.736-2.89 7.59-2.06.856.83-.038 5.334-2.12 7.357-.97.924-2.251 1.477-3.608 1.556-.137.015-.272.015-.407.015-1.018 0-1.914-.256-2.357-.687-.502-.489-.774-1.54-.692-2.678.079-1.316.645-2.56 1.594-3.503zM.322 11.072c.855-.83 5.493.037 7.576 2.06.952.94 1.523 2.181 1.607 3.496.082 1.141-.19 2.192-.692 2.679-.45.43-1.346.687-2.357.687-.133 0-.27-.015-.408-.015-1.354-.078-2.634-.628-3.604-1.55C.36 16.408-.533 11.902.322 11.072zM10.992 0c1.211 0 3.858 3.8 3.858 6.66-.013 1.32-.517 2.59-1.419 3.577-.771.862-1.73 1.418-2.438 1.418-1.32 0-3.858-2.136-3.858-4.995C7.135 3.8 9.782 0 10.992 0z" clip-rule="evenodd"/>
</svg>
